<?xml version="1.0" encoding="UTF-8" standalone="no"?>
<!-- Created with Inkscape (http://www.inkscape.org/) -->

<svg
   version="1.1"
   id="svg870"
   width="300"
   height="300"
   viewBox="0 0 300 299.99999"
   xmlns="http://www.w3.org/2000/svg"
   xmlns:svg="http://www.w3.org/2000/svg">
  <defs
     id="defs874" />
  <g
     id="g876"
     transform="translate(-202.67113,-222.02135)">
    <path
       style="fill:#ffcc00"
       d="m 307.98599,483.37981 c -4.3657,-1.84504 -18.53056,-9.09322 -33.43962,-17.11113 -25.28897,-13.60009 -34.08713,-18.2655 -42.5,-22.53651 -13.30811,-6.7562 -17.42391,-9.43814 -16.26409,-10.59796 0.8136,-0.8136 17.81421,-4.16669 77.76409,-15.33766 8.96382,-1.6703 10.48766,-1.94696 22.5,-4.08492 4.675,-0.83206 10.075,-1.94427 12,-2.47159 1.925,-0.52732 6.06578,-0.96128 9.20174,-0.96434 l 5.70174,-0.006 10.85469,9.75 c 5.97008,5.3625 17.35429,15.60679 25.29826,22.7651 7.94396,7.1583 16.91857,15.01266 19.94357,17.45414 5.76841,4.65568 9,7.6602 9,8.36763 0,1.52343 -7.77916,3.38525 -34.5,8.25703 -10.45,1.90526 -23.725,4.36393 -29.5,5.46372 -5.775,1.09978 -15.225,2.22005 -21,2.48949 -8.86068,0.4134 -11.21199,0.18898 -15.06038,-1.43742 z m 129.36065,-3.06025 c -11.65692,-5.29214 -43.50835,-31.4555 -70.55152,-57.95234 -13.05817,-12.79437 -12.74639,-11.91509 -7.2752,-20.51764 13.7461,-21.61352 38.11172,-66.83051 62.02522,-115.1046 15.70908,-31.71187 19.50751,-38.47486 21.60935,-38.47486 1.36512,0 3.25383,4.54053 17.05467,41 4.92055,12.99925 15.9899,43.54789 18.77002,51.80056 5.472,16.24336 1.58038,28.54674 -27.09073,85.64763 l -16.22643,32.31628 1.94218,2.76523 c 5.23217,7.44946 7.37767,12.1464 7.40924,16.2203 0.0385,4.97262 -1.05571,5.30081 -7.6668,2.29944 z m -80.29313,-83.79944 c 0.0167,-1.74894 15.2087,-40.25382 37.97528,-96.25 8.38558,-20.625 16.75747,-41.28996 18.60418,-45.92213 3.73933,-9.37949 4.86658,-11.02469 6.46125,-9.43002 1.74251,1.74251 5.95215,15.29474 5.95215,19.16195 0,3.45208 -12.19832,28.85153 -32.50883,67.6902 -3.45144,6.6 -11.92333,22.8893 -18.82642,36.19844 -6.9031,13.30915 -13.30341,25.34665 -14.22293,26.75 -1.59277,2.43089 -3.44995,3.40501 -3.43468,1.80156 z m -34.01214,-9.5214 c -14.59622,-9.48834 -28.26494,-21.41515 -33.38759,-29.13274 -5.36977,-8.0899 -8.63566,-18.99737 -9.2694,-30.95812 -0.43828,-8.27188 -0.2486,-10.50584 1.03062,-12.13774 1.45648,-1.85803 1.57125,-1.36115 1.61693,7 0.0881,16.13127 3.82223,28.01686 12.08692,38.47248 4.30838,5.45051 18.12119,16.85189 30.17752,24.90914 4.2625,2.84863 7.75,5.39061 7.75,5.64885 0,1.52641 -4.35284,-0.12766 -10.005,-3.80187 z m 24.14333,-0.97992 c -7.70345,-17.12053 -9.46898,-28.63862 -6.69966,-43.70773 2.08539,-11.34757 3.05518,-14.04095 5.05563,-14.04095 1.56189,0 1.39749,2.27496 -0.54691,7.56836 -1.96104,5.33867 -3.25141,21.38117 -2.22029,27.60376 0.86077,5.19457 4.82678,17.04047 8.73089,26.07788 0.5091,1.17849 0.31282,1.74957 -0.601,1.74868 -0.74635,-7.2e-4 -2.41974,-2.36322 -3.71866,-5.25 z"
       id="path1122" />
  </g>
</svg>
