<?xml version="1.0" encoding="UTF-8" standalone="no"?>
<!-- Created with Inkscape (http://www.inkscape.org/) -->

<svg
   width="29.633335mm"
   height="23.8125mm"
   viewBox="0 0 29.633336 23.812501"
   version="1.1"
   id="svg5"
   xml:space="preserve"
   xmlns="http://www.w3.org/2000/svg"
   xmlns:svg="http://www.w3.org/2000/svg"><defs
     id="defs2" /><g
     id="layer1"
     transform="translate(-76.968362,-77.729037)"><g
       id="g493"
       transform="translate(74.851695,70.320704)"><rect
         style="fill:#a27100;fill-opacity:1;stroke-width:0.264583"
         id="rect322"
         width="29.633333"
         height="23.8125"
         x="2.1166668"
         y="7.4083333"
         ry="1.5875" /><rect
         style="fill:#ffce51;fill-opacity:1;stroke-width:0.264583"
         id="rect3362"
         width="29.633335"
         height="23.283333"
         x="2.1166668"
         y="7.4083333"
         ry="1.5875" /><path
         d="m 2.1166696,29.104166 c 0,0.879475 0.7080249,1.5875 1.5874999,1.5875 H 30.162502 c 0.879475,0 1.5875,-0.708025 1.5875,-1.5875 L 16.933336,7.9374989 Z"
         style="fill:#c29a32;fill-opacity:1;stroke-width:0.264583"
         id="path739" /><path
         d="M 31.749999,8.9958325 V 9.5249997 L 16.933333,21.695829 2.1166666,9.5249997 V 8.9958325 Z"
         style="fill-opacity:0.196;stroke-width:0.529166"
         id="path1228" /><path
         d="M 3.7041666,7.4083331 H 30.1625 c 0.879475,0 1.5875,0.708025 1.5875,1.5875 L 16.933334,21.166666 2.1166666,8.9958331 c 0,-0.879475 0.708025,-1.5875 1.5875,-1.5875 z"
         style="fill:#ffee7d;stroke-width:0.264583"
         id="path5743" /><path
         id="rect5763"
         style="opacity:0.4;fill:#2e2e2e;fill-opacity:1;stroke:none;stroke-width:0.529167;stroke-linejoin:round"
         d="m 3.7041666,7.4083332 c -0.8794741,0 -1.5875,0.7080258 -1.5875,1.5875 V 29.104166 c 0,0.879474 0.7080259,1.5875 1.5875,1.5875 H 30.162499 c 0.879475,0 1.5875,-0.708026 1.5875,-1.5875 V 8.9958332 c 0,-0.8794742 -0.708025,-1.5875 -1.5875,-1.5875 z m 0,0.2645833 H 30.162499 c 0.732895,0 1.322917,0.5900216 1.322917,1.3229167 V 29.104166 c 0,0.732895 -0.590022,1.322917 -1.322917,1.322917 H 3.7041666 c -0.7328951,0 -1.3229166,-0.590022 -1.3229166,-1.322917 V 8.9958332 c 0,-0.7328951 0.5900215,-1.3229167 1.3229166,-1.3229167 z" /></g></g></svg>
