<?xml version="1.0" encoding="UTF-8" standalone="no"?>
<!-- Created with Inkscape (http://www.inkscape.org/) -->

<svg
   width="44.102913mm"
   height="34.65229mm"
   viewBox="0 0 44.102913 34.652291"
   version="1.1"
   id="svg5"
   xml:space="preserve"
   xmlns="http://www.w3.org/2000/svg"
   xmlns:svg="http://www.w3.org/2000/svg"><defs
     id="defs2" /><g
     id="layer1"
     transform="translate(-69.733572,-72.309142)"><g
       id="g197"
       transform="matrix(1.4882873,0,0,1.4882873,66.583364,61.283413)"><rect
         style="opacity:1;fill:#767676;fill-opacity:1;stroke-width:0.529166"
         id="rect1196"
         width="29.633333"
         height="23.283333"
         x="2.1166668"
         y="7.4083338"
         ry="2.1166668" /><rect
         style="fill:#ededed;fill-opacity:1;stroke-width:0.529167"
         id="rect2281"
         width="29.104166"
         height="21.960417"
         x="2.3812499"
         y="7.6729169"
         ry="1.984375" /><path
         d="m 5.8208334,15.08125 v 3.175 h 3.1750001 v -3.175 z m 4.7624996,0 v 3.175 h 3.175001 v -3.175 z m 4.762501,0 v 3.175 h 3.175 v -3.175 z m 4.7625,0 v 3.175 h 3.175 v -3.175 z m 4.7625,0 v 3.175 h 3.175 v -3.175 z m -19.0500006,4.7625 v 3.175 h 3.1750001 v -3.175 z m 4.7624996,0 v 3.175 h 3.175001 v -3.175 z m 4.762501,0 v 3.175 h 3.175 v -3.175 z m 9.525,0 v 3.175 h 3.175 v -3.175 z m -19.0500006,4.7625 v 3.175 h 3.1750001 v -3.175 z m 4.7624996,0 v 3.175 h 3.175001 v -3.175 z m 4.762501,0 v 3.175 h 3.175 v -3.175 z m 4.7625,0 v 3.175 h 3.175 v -3.175 z m 4.7625,0 v 3.175 h 3.175 v -3.175 z"
         style="opacity:0.25;fill:#000000;fill-opacity:1;stroke-width:0.264583"
         id="path5455" /><circle
         style="opacity:0.2;fill:#000000;fill-opacity:1;stroke-width:0.705555"
         id="path34682"
         cx="21.695833"
         cy="21.43125"
         r="2.1166666" /><circle
         style="fill:#faa414;fill-opacity:1;stroke-width:0.705555"
         id="path6926"
         cx="21.695833"
         cy="21.166666"
         r="2.1166666" /><path
         d="m 4.365625,7.6729167 c -1.0993437,0 -1.984375,0.885032 -1.984375,1.984375 V 13.229167 H 31.485417 V 9.6572917 c 0,-1.099343 -0.885031,-1.984375 -1.984375,-1.984375 z"
         style="fill:#faa41a;fill-opacity:1;stroke-width:0.264583"
         id="path996" /></g></g></svg>
