<?xml version="1.0" encoding="UTF-8" standalone="no"?>
<!-- Created with Inkscape (http://www.inkscape.org/) -->

<svg
   width="27.516666mm"
   height="27.516666mm"
   viewBox="0 0 27.516667 27.516667"
   version="1.1"
   id="svg5"
   xml:space="preserve"
   xmlns="http://www.w3.org/2000/svg"
   xmlns:svg="http://www.w3.org/2000/svg"><defs
     id="defs2" /><g
     id="layer1"
     transform="translate(-78.026696,-75.876954)"><g
       id="g414"
       transform="translate(74.587113,72.437371)"><rect
         style="opacity:1;fill:#cdcdcd;fill-opacity:1;stroke-width:1.05833;stroke-linecap:round"
         id="rect934"
         width="27.516666"
         height="27.516666"
         x="3.4395833"
         y="3.4395833"
         ry="2.2489583" /><path
         d="m 14.848416,8.4666667 -0.183621,2.1952483 c -0.696116,0.257769 -1.343338,0.632019 -1.913996,1.106752 l -1.994958,-0.939271 -2.0838581,3.608917 1.8116011,1.258358 c -0.0645,0.364634 -0.09796,0.734082 -0.100012,1.104371 1.96e-4,0.371833 0.03206,0.742974 0.09525,1.109398 l -1.8068391,1.253331 2.0835931,3.609182 1.990725,-0.937154 c 0.572442,0.472707 1.221097,0.844632 1.918229,1.099873 l 0.183886,2.20001 h 4.167187 l 0.183621,-2.195248 c 0.696135,-0.257849 1.343357,-0.63219 1.913996,-1.107017 l 1.994959,0.939536 2.083858,-3.608917 -1.811602,-1.258358 c 0.06452,-0.364721 0.09797,-0.734258 0.100012,-1.104636 -2.1e-4,-0.371744 -0.03207,-0.742796 -0.09525,-1.109133 l 1.80684,-1.253331 -2.083594,-3.609182 -1.990725,0.937154 C 20.545296,11.293749 19.89664,10.921734 19.199489,10.666413 L 19.015603,8.4666667 Z m 2.083594,5.9531253 c 1.315128,0 2.38125,1.066122 2.38125,2.38125 0,1.315128 -1.066122,2.38125 -2.38125,2.38125 -1.315129,0 -2.38125,-1.066122 -2.38125,-2.38125 0,-1.315128 1.066121,-2.38125 2.38125,-2.38125 z"
         style="fill:#463e39;stroke-width:0.264583"
         id="path418" /><path
         id="rect2485"
         style="opacity:0.5;fill:#000000;fill-opacity:1;stroke-width:0.529166"
         d="m 5.6885417,3.4395834 c -1.2459217,0 -2.2489583,1.0030366 -2.2489583,2.2489583 V 28.707292 c 0,1.245922 1.0030366,2.248958 2.2489583,2.248958 H 28.707292 c 1.245922,0 2.248958,-1.003036 2.248958,-2.248958 V 5.6885417 c 0,-1.2459217 -1.003036,-2.2489583 -2.248958,-2.2489583 z M 5.8208334,3.7041667 H 28.575 c 1.172633,0 2.116667,0.9440345 2.116667,2.1166667 V 27.78125 c 0,1.172633 -0.944034,2.116667 -2.116667,2.116667 H 5.8208334 c -1.1726322,0 -2.1166667,-0.944034 -2.1166667,-2.116667 V 5.8208334 c 0,-1.1726322 0.9440345,-2.1166667 2.1166667,-2.1166667 z" /></g></g></svg>
